# xmcd
#
# Track frame offsets:
#	150
#	12620
#	29965
#	42597
#	59105
#	71062
#	86702
#	102492
#	116165
#	132270
#
# Disc length: 1922 seconds
#
# Revision: 0
# Processed by: cddbd v1.4PL0 Copyright (c) Steve Scherf et al.
# Submitted via: audiograbber 1.80
#
DISCID=a307800a
DTITLE=Deryl Dodd - Deryl Dodd
DYEAR=1900
DGENRE=
TTITLE0=It's Only Cause Your Lonely
TTITLE1=Best I Ever Had
TTITLE2=Bad For Good
TTITLE3=A Bitter End
TTITLE4=John Roland Wood
TTITLE5=30 - 30
TTITLE6=I Thought I'd Heard it All
TTITLE7=Good Idea Tomorrow
TTITLE8=On Any Given Day
TTITLE9=Somewhere Down The Road
EXTD=
EXTT0=
EXTT1=
EXTT2=
EXTT3=
EXTT4=
EXTT5=
EXTT6=
EXTT7=
EXTT8=
EXTT9=
PLAYORDER=
